<?xml version="1.0" standalone="no"?>
<!DOCTYPE svg PUBLIC "-//W3C//DTD SVG 20010904//EN"
 "http://www.w3.org/TR/2001/REC-SVG-20010904/DTD/svg10.dtd">
<svg version="1.0" xmlns="http://www.w3.org/2000/svg"
 width="512.000000pt" height="512.000000pt" viewBox="0 0 512.000000 512.000000"
 preserveAspectRatio="xMidYMid meet">

<g transform="translate(0.000000,512.000000) scale(0.100000,-0.100000)"
fill="#000000" stroke="none">
<path d="M2290 4959 c-324 -37 -640 -141 -923 -302 -678 -387 -1122 -1067
-1207 -1849 -13 -125 -13 -371 0 -496 36 -330 133 -639 287 -917 222 -398 549
-726 948 -948 265 -147 601 -253 910 -287 118 -13 390 -13 513 0 311 34 638
137 906 286 692 386 1148 1069 1236 1849 14 131 12 423 -4 555 -68 546 -304
1029 -691 1416 -385 385 -877 624 -1415 689 -126 16 -440 18 -560 4z m1868
-801 c17 -17 15 -148 -3 -217 -62 -239 -255 -430 -499 -491 -74 -19 -113 -20
-558 -20 l-478 0 0 59 0 60 478 3 c413 4 485 7 536 21 92 27 187 82 248 145
89 90 133 173 162 305 l6 27 -1072 0 -1073 -1 1081 -1078 c982 -980 1083
-1085 1116 -1147 55 -105 68 -162 68 -291 0 -99 -3 -122 -29 -192 -70 -193
-231 -335 -426 -377 -47 -11 -340 -13 -1396 -14 -1286 0 -1337 1 -1353 18 -15
17 -16 53 -14 363 l3 343 25 13 c19 10 190 13 773 13 l747 0 0 -65 0 -65 -715
0 -715 0 0 -245 0 -245 95 0 95 0 0 90 0 90 60 0 60 0 0 -90 0 -90 60 0 59 0
3 153 3 152 63 3 62 3 0 -156 0 -155 60 0 60 0 0 90 0 90 65 0 65 0 0 -90 0
-90 60 0 59 0 3 153 3 152 63 3 62 3 0 -156 0 -155 60 0 60 0 0 90 0 90 65 0
65 0 0 -90 0 -90 60 0 60 0 0 155 0 156 63 -3 62 -3 3 -152 3 -153 292 1 292
0 -1061 1057 c-584 581 -1075 1075 -1091 1097 -128 170 -151 422 -56 609 58
114 166 221 275 271 123 56 51 54 1514 54 1037 1 1353 -2 1362 -11z m-418
-293 l0 -65 -310 0 -310 0 0 65 0 65 310 0 310 0 0 -65z"/>
<path d="M1419 4032 c-229 -60 -377 -285 -340 -514 6 -40 25 -102 42 -138 29
-60 107 -141 1097 -1130 587 -586 1086 -1078 1109 -1094 152 -103 365 -102
520 1 160 106 237 309 188 496 -26 99 -61 153 -177 273 l-111 115 -112 -111
c-90 -89 -117 -110 -141 -110 -24 0 -98 69 -511 482 -380 380 -483 488 -483
508 0 18 29 54 110 135 l110 110 -458 457 c-489 488 -494 492 -624 523 -81 19
-137 18 -219 -3z m331 -437 l65 65 45 -45 45 -45 -65 -65 -64 -65 64 -65 65
-65 -45 -45 -45 -45 -65 65 -64 65 -68 -67 -68 -67 -40 39 c-22 21 -40 44 -40
49 0 6 28 39 62 73 l62 63 -64 65 -64 65 44 45 44 45 66 -65 66 -65 64 65z"/>
<path d="M2730 2885 l-75 -75 48 -47 47 -48 75 75 c41 41 75 79 75 83 0 9 -80
86 -90 87 -3 0 -39 -34 -80 -75z"/>
<path d="M2917 2702 l-77 -77 47 -48 48 -47 77 77 77 76 -40 49 c-23 26 -44
48 -48 48 -3 0 -41 -35 -84 -78z"/>
<path d="M3100 2515 l-75 -75 46 -46 c55 -55 55 -55 149 41 l65 66 -48 45
c-27 24 -52 44 -56 44 -3 0 -40 -34 -81 -75z"/>
<path d="M3287 2332 l-77 -78 50 -49 50 -49 75 74 c41 41 75 79 75 84 0 11
-80 96 -90 96 -3 0 -40 -35 -83 -78z"/>
<path d="M3473 2141 l-72 -77 47 -47 48 -47 79 80 79 80 -44 45 c-24 25 -49
45 -55 44 -5 0 -42 -36 -82 -78z"/>
</g>
</svg>
